<?xml version="1.0" standalone="no"?>
<!DOCTYPE svg PUBLIC "-//W3C//DTD SVG 20010904//EN"
 "http://www.w3.org/TR/2001/REC-SVG-20010904/DTD/svg10.dtd">
<svg version="1.0" xmlns="http://www.w3.org/2000/svg"
 width="1024.000000pt" height="1024.000000pt" viewBox="0 0 1024.000000 1024.000000"
 preserveAspectRatio="xMidYMid meet">
<metadata>
Created by potrace 1.14, written by Peter Selinger 2001-2017
</metadata>
<g transform="translate(0.000000,1024.000000) scale(0.100000,-0.100000)"
fill="#000000" stroke="none">
<path d="M9162 7411 c1 -17 -4 -20 -26 -11 -15 5 -27 5 -35 -3 -8 -8 -11 -8
-11 2 0 10 -6 10 -24 -3 -14 -9 -32 -13 -40 -10 -9 3 -16 1 -16 -5 0 -6 -8
-11 -18 -11 -10 0 -23 -5 -29 -11 -6 -6 -21 -16 -34 -23 -26 -13 -49 -68 -30
-74 6 -2 18 -10 26 -19 8 -8 15 -11 15 -6 0 5 23 9 50 8 28 -1 50 3 50 8 0 5
9 7 20 4 11 -3 18 0 17 6 -2 12 166 18 181 7 10 -7 11 -80 1 -74 -5 3 -6 -1
-4 -9 3 -7 -10 -34 -30 -60 -33 -44 -49 -97 -23 -81 7 4 8 3 4 -4 -4 -7 -4
-18 1 -24 4 -7 8 -17 8 -23 0 -5 8 -11 18 -13 10 -2 17 3 17 11 0 11 10 14 35
13 21 -1 37 4 40 12 3 7 10 10 16 7 6 -4 17 2 25 14 9 12 19 19 24 16 5 -3 11
-1 14 4 3 5 20 8 38 7 42 -3 88 20 88 45 0 14 -7 19 -30 19 -16 0 -30 -4 -30
-9 0 -5 -9 -7 -20 -4 -11 3 -26 1 -33 -4 -6 -5 -19 -9 -27 -8 -8 1 -24 -3 -35
-9 -26 -13 -54 -15 -61 -5 -6 10 45 109 57 109 5 0 7 10 5 23 -2 12 1 28 7 35
29 36 -13 121 -55 114 -10 -2 -18 2 -18 7 0 6 -3 10 -7 9 -5 -1 -18 3 -31 10
-23 13 -91 23 -90 13z"/>
<path d="M4890 6979 c0 -5 -5 -9 -11 -9 -13 0 -49 -38 -49 -52 0 -4 6 -8 13
-8 7 0 8 -3 2 -8 -10 -7 -12 -17 -17 -77 -1 -16 -8 -40 -16 -52 -8 -13 -11
-23 -7 -23 5 0 0 -9 -9 -19 -10 -11 -15 -25 -11 -30 3 -6 -1 -11 -9 -11 -9 0
-13 -6 -10 -14 13 -35 -32 -26 -80 17 -11 9 -24 17 -28 17 -5 0 -7 4 -3 9 3 6
-4 15 -15 21 -17 9 -20 8 -20 -8 0 -13 -7 -18 -27 -18 -16 1 -31 6 -35 11 -5
6 -8 6 -8 -1 0 -6 -7 -11 -15 -11 -8 0 -15 4 -15 8 0 4 -20 11 -45 15 -25 3
-48 11 -51 16 -4 6 -9 5 -14 -2 -5 -8 -13 -9 -21 -4 -18 11 -79 13 -73 2 6 -9
0 -10 -106 -10 -84 0 -120 3 -120 12 0 4 -7 7 -15 7 -8 0 -15 -5 -15 -11 0 -6
-5 -4 -10 4 -5 8 -10 11 -10 7 0 -4 -9 -3 -19 3 -14 7 -22 7 -27 -1 -5 -9 -11
-7 -20 6 -7 10 -26 18 -43 19 -16 1 -27 4 -24 9 2 4 0 7 -6 7 -5 0 -12 -4 -15
-9 -7 -10 -37 -9 -73 3 -15 5 -23 3 -23 -4 0 -6 -5 -8 -11 -5 -6 4 -21 -3 -34
-15 -21 -19 -36 -23 -117 -25 -106 -2 -115 -4 -140 -27 -10 -10 -27 -18 -39
-18 -11 0 -17 -5 -14 -10 4 -6 -4 -5 -19 1 -20 9 -38 8 -88 -5 -35 -9 -87 -18
-116 -20 -32 -2 -59 -10 -72 -21 -11 -10 -20 -15 -20 -12 0 4 -26 -5 -57 -19
-50 -22 -78 -31 -106 -33 -4 -1 -6 -6 -5 -13 2 -7 -17 -16 -44 -21 -27 -5 -48
-13 -48 -18 0 -4 -9 -6 -21 -4 -12 2 -27 -2 -35 -9 -7 -8 -30 -12 -54 -11 -30
2 -51 -4 -76 -21 -19 -13 -39 -24 -44 -24 -4 0 -10 -5 -12 -12 -2 -6 -19 -13
-37 -14 -35 -2 -100 -41 -138 -82 -12 -14 -23 -22 -23 -18 0 7 -19 -7 -50 -38
-14 -14 -20 -16 -20 -6 0 9 -6 8 -19 -6 -10 -10 -17 -22 -15 -25 6 -10 -44
-52 -54 -45 -5 3 -8 21 -6 41 1 19 -2 37 -7 41 -5 3 -7 9 -4 14 3 5 -4 11 -15
15 -11 3 -20 13 -20 21 0 8 -4 14 -10 14 -5 0 -10 8 -11 18 0 9 -3 12 -5 5 -3
-7 -15 -1 -32 16 -15 15 -35 30 -45 34 -9 4 -16 10 -15 15 4 11 -80 92 -95 93
-65 3 -100 11 -122 25 -14 9 -25 13 -25 10 0 -4 -10 -1 -23 6 -32 18 -63 22
-147 21 -94 -1 -120 -5 -120 -16 0 -5 -7 -7 -15 -4 -8 4 -17 2 -20 -4 -4 -5
-10 -7 -15 -4 -5 3 -11 1 -15 -5 -4 -6 -11 -8 -16 -5 -5 4 -9 1 -9 -4 0 -6 -5
-11 -11 -11 -12 0 -40 -26 -34 -31 2 -2 -19 -5 -46 -5 -27 -1 -56 -7 -64 -14
-8 -7 -15 -9 -15 -5 0 4 -11 -4 -25 -19 -13 -14 -26 -26 -29 -26 -4 0 -44 -32
-77 -62 -10 -10 -25 -18 -32 -18 -7 0 -23 -10 -34 -22 -11 -13 -41 -41 -67
-63 -25 -22 -46 -45 -46 -51 0 -7 -11 -19 -25 -28 -14 -9 -23 -21 -20 -25 3
-5 -4 -19 -14 -32 -14 -17 -16 -27 -8 -40 7 -11 5 -25 -7 -49 -9 -18 -16 -41
-16 -52 0 -10 -4 -18 -8 -18 -5 0 -9 -6 -9 -12 -1 -19 -32 -130 -38 -136 -3
-3 0 -11 6 -19 8 -9 8 -13 1 -13 -8 0 -8 -8 -3 -22 4 -13 4 -36 -1 -53 -17
-59 -19 -85 -6 -85 9 0 9 -3 2 -8 -11 -7 -16 -132 -5 -132 3 0 5 -17 4 -37 -2
-47 6 -85 18 -77 5 3 6 -2 3 -11 -4 -8 -1 -21 5 -29 6 -7 8 -16 4 -19 -3 -4
-1 -7 5 -7 7 0 11 -3 10 -7 -2 -14 14 -44 41 -72 14 -16 43 -49 64 -75 21 -25
43 -44 48 -41 5 4 9 1 9 -5 0 -6 5 -8 10 -5 6 3 10 -2 10 -11 0 -10 3 -14 7
-11 3 4 11 -1 18 -10 7 -9 21 -18 31 -19 10 -2 20 -8 22 -14 12 -36 140 -129
155 -113 6 6 3 -29 -7 -74 -4 -18 -11 -33 -16 -33 -13 0 -8 -40 5 -40 5 -1 0
-9 -12 -19 -12 -10 -19 -21 -16 -25 4 -3 2 -6 -4 -6 -6 0 -14 -11 -17 -25 -4
-14 -11 -25 -17 -25 -6 0 -8 -4 -5 -9 3 -5 -1 -14 -9 -21 -8 -7 -12 -17 -9
-22 4 -6 0 -14 -7 -19 -8 -5 -15 -28 -16 -56 0 -26 -4 -59 -8 -73 -3 -14 -7
-32 -8 -40 -1 -8 -7 -20 -13 -27 -6 -6 -10 -30 -9 -52 2 -44 -10 -60 -47 -65
-13 -1 -34 -7 -48 -13 -14 -6 -28 -11 -32 -12 -5 0 -17 -10 -28 -21 -17 -17
-38 -25 -62 -21 -4 0 -11 -14 -17 -32 -6 -18 -34 -54 -61 -81 -27 -27 -48 -52
-45 -56 3 -4 -6 -11 -20 -14 -14 -4 -25 -11 -25 -17 0 -6 -4 -8 -8 -5 -5 3
-15 -6 -22 -19 -7 -14 -17 -25 -21 -25 -20 0 -37 -32 -34 -64 2 -20 6 -39 9
-44 3 -5 -4 -14 -14 -22 -10 -8 -17 -18 -14 -22 3 -5 0 -16 -7 -24 -10 -13
-10 -17 0 -24 11 -6 11 -9 0 -13 -10 -4 -10 -6 -1 -6 6 -1 12 -6 12 -12 0 -14
26 -39 40 -39 6 0 9 -4 5 -9 -7 -12 29 -74 38 -65 3 3 16 -3 28 -15 13 -12 31
-22 41 -22 26 -2 32 -3 46 -12 6 -5 17 -5 22 -2 6 4 25 8 43 10 18 1 57 15 87
31 54 28 110 40 110 23 0 -5 6 -9 14 -9 8 0 16 -7 20 -15 3 -8 12 -15 21 -15
8 0 15 -4 15 -10 0 -5 7 -10 15 -10 13 0 75 -31 100 -50 6 -4 31 -10 58 -12
27 -3 64 -17 87 -32 22 -14 40 -22 40 -16 0 11 24 9 88 -11 23 -6 42 -16 42
-22 0 -5 7 -7 15 -3 8 3 15 0 15 -6 0 -9 3 -9 11 -1 7 7 19 8 33 3 42 -17 61
-23 66 -23 3 1 19 3 37 6 18 3 33 2 35 -3 2 -4 14 -3 28 3 33 13 60 16 60 6 0
-14 52 -60 71 -64 11 -2 24 -7 31 -11 7 -4 29 -7 50 -7 21 0 38 -3 38 -8 0 -4
9 -6 20 -4 11 2 20 0 20 -5 0 -5 7 -7 15 -4 8 4 15 1 15 -6 0 -6 5 -8 10 -5 6
3 10 1 10 -5 0 -11 37 -28 73 -34 12 -1 23 -8 25 -14 2 -7 10 -12 18 -12 8 0
17 -7 20 -15 4 -8 10 -13 15 -10 8 5 17 2 67 -24 13 -6 27 -9 32 -6 6 4 10 2
10 -2 0 -5 14 -8 30 -7 19 1 30 -3 30 -11 0 -15 95 -54 130 -53 46 1 51 -1 46
-24 -2 -13 -7 -31 -11 -40 -4 -11 -3 -18 4 -18 6 0 11 -6 11 -14 0 -8 5 -16
11 -18 5 -2 11 -11 12 -20 2 -9 9 -24 17 -34 9 -11 10 -15 3 -10 -9 5 -11 2
-7 -9 4 -9 9 -13 12 -10 3 3 16 -2 30 -11 13 -8 26 -13 29 -10 4 3 13 0 21 -7
13 -10 14 -9 7 2 -6 11 -5 12 6 5 8 -4 23 -10 34 -11 10 -2 23 -9 27 -16 4 -6
8 -8 8 -2 0 5 5 4 11 -2 6 -6 18 -9 25 -6 8 3 30 -2 50 -12 20 -9 38 -14 41
-11 4 3 11 2 18 -4 6 -5 28 -10 49 -12 20 -1 39 -6 42 -10 3 -4 11 -5 19 -1 9
3 15 -1 15 -11 0 -18 15 -22 25 -6 3 5 16 8 28 6 11 -1 30 5 41 16 11 10 24
14 29 9 4 -4 26 -5 48 -1 26 5 39 4 39 -4 0 -6 4 -5 9 3 11 18 189 25 208 9 7
-5 16 -7 22 -4 5 3 12 0 14 -6 4 -10 6 -10 6 -1 1 7 7 10 14 7 7 -2 23 5 35
16 12 11 22 16 22 9 0 -6 6 -9 14 -6 7 3 26 -1 41 -9 17 -8 37 -11 49 -7 12 4
24 6 29 5 4 -1 7 2 7 8 0 5 7 7 15 4 8 -3 17 0 20 8 6 15 12 17 60 20 14 1 25
5 25 9 0 3 12 6 28 6 15 -1 38 5 52 13 32 18 243 24 273 8 12 -6 37 -10 56
-10 19 1 41 -4 50 -11 12 -10 13 -9 6 3 -7 13 -6 13 7 2 17 -13 48 -7 48 11 0
6 3 8 6 4 3 -3 17 -2 30 3 15 6 24 6 24 0 0 -6 16 -10 35 -10 19 0 35 -4 35
-9 0 -9 48 -8 162 4 34 3 59 1 63 -5 4 -6 12 -6 25 2 14 9 22 9 36 -3 10 -8
15 -9 11 -3 -8 14 65 13 75 -1 5 -6 8 -5 8 3 0 8 5 10 12 6 6 -4 50 -9 97 -10
261 -9 322 -12 328 -18 3 -3 14 1 23 9 18 16 40 17 51 1 4 -4 16 -3 28 3 12 7
27 9 33 5 7 -4 8 -3 4 4 -4 7 2 11 16 10 49 -2 77 3 90 15 14 13 42 16 54 4 4
-4 13 -2 21 4 7 6 13 8 13 3 0 -5 5 -2 10 6 8 13 10 13 10 -2 0 -9 5 -20 11
-24 8 -4 9 1 4 17 -3 13 -3 20 2 14 12 -15 56 -38 48 -26 -8 14 21 14 47 0 16
-9 19 -8 13 2 -6 9 -3 11 8 6 10 -3 17 -2 17 3 0 5 7 7 15 4 9 -4 15 0 15 7 0
12 2 12 9 1 7 -11 9 -10 15 3 3 10 11 13 18 9 19 -12 48 -12 55 -1 4 6 1 7 -7
2 -9 -5 -11 -4 -6 4 6 8 12 9 20 2 9 -7 17 -7 26 2 10 10 11 9 5 -2 -6 -10 -4
-12 5 -6 27 17 163 23 220 10 40 -9 169 -10 177 -1 4 3 13 0 21 -7 13 -9 14
-9 8 1 -5 8 1 12 21 13 29 1 55 4 108 14 17 3 63 5 103 4 120 0 133 1 150 14
8 6 29 10 48 9 19 -2 40 1 47 5 12 8 22 10 67 17 72 12 97 17 120 26 51 19
176 31 205 20 12 -5 32 -1 50 8 33 17 49 23 81 26 11 1 25 6 32 10 12 7 56 18
80 19 6 0 12 4 12 9 0 5 5 6 10 3 6 -3 10 -1 10 4 0 6 7 11 15 11 9 0 19 10
24 23 5 12 10 21 12 19 11 -9 39 12 39 29 0 16 56 52 85 54 31 3 65 19 65 32
0 8 4 11 10 8 5 -3 20 1 33 10 13 8 26 12 29 9 4 -3 11 4 18 15 6 12 15 19 19
16 5 -3 12 2 15 11 4 9 13 14 21 10 13 -5 16 -2 15 19 0 6 14 25 48 60 13 14
21 25 18 25 -3 0 6 12 19 26 14 15 22 30 19 35 -3 5 0 9 5 9 6 0 11 6 11 13 0
7 17 37 37 67 51 74 85 155 88 210 4 53 14 90 26 90 4 0 6 9 4 20 -2 11 0 18
6 15 13 -9 11 49 -3 63 -7 7 -8 12 -4 12 5 0 4 6 -2 13 -15 18 -23 67 -11 67
6 0 6 7 -1 19 -5 11 -10 33 -10 50 0 17 -4 31 -9 31 -5 0 -13 9 -16 20 -3 11
-11 20 -16 20 -21 0 -37 26 -27 43 6 12 5 17 -3 17 -6 0 -9 8 -6 20 3 10 1 20
-3 22 -5 2 -11 14 -13 28 -9 45 -12 55 -20 61 -5 4 -9 32 -10 63 -1 31 -4 56
-7 56 -3 0 -6 11 -6 25 0 14 4 25 9 25 5 0 7 6 5 12 -3 7 0 18 7 24 18 18 11
205 -9 248 -9 20 -15 40 -11 45 3 5 -1 12 -7 14 -10 4 -10 8 1 15 9 7 10 12 2
16 -6 4 -9 12 -6 17 4 5 1 9 -5 9 -6 0 -9 4 -6 9 11 17 -45 107 -58 94 -6 -6
-8 13 -9 70 0 15 -5 27 -10 27 -6 0 -7 3 -4 7 4 3 0 17 -8 30 -9 13 -11 23 -6
23 6 0 8 7 5 15 -4 8 -2 15 4 15 17 0 5 61 -19 93 -12 17 -22 37 -22 44 0 7
-4 13 -9 13 -5 0 -6 9 -3 20 4 13 2 20 -6 18 -7 -2 -13 11 -15 32 -1 19 -8 36
-13 38 -6 2 -11 12 -11 22 0 10 -4 22 -10 25 -5 3 -10 14 -10 24 0 13 8 18 32
19 17 0 35 7 39 14 5 7 9 9 9 4 0 -20 64 90 66 114 4 41 13 71 25 86 6 8 8 14
5 14 -4 0 1 12 12 28 11 15 20 30 20 35 1 4 6 24 11 44 6 20 8 40 5 45 -3 4 0
8 6 8 7 0 10 7 6 15 -3 8 -1 15 4 15 5 0 12 10 15 23 3 12 18 31 34 41 21 15
26 25 23 47 -2 16 0 29 6 29 6 0 9 9 7 20 -2 11 3 27 12 36 10 10 17 36 18 71
1 30 8 59 15 63 6 4 11 10 11 14 -1 3 -1 7 0 9 5 11 3 107 -2 107 -4 0 -5 9
-2 21 6 22 -12 63 -39 91 -10 10 -18 23 -18 28 0 6 -7 10 -15 10 -8 0 -15 6
-15 13 0 8 -4 7 -10 -3 -8 -12 -10 -12 -10 -1 0 8 -3 11 -7 8 -3 -4 -12 -2
-20 5 -22 18 -93 17 -93 -2 0 -9 -3 -11 -8 -5 -8 11 -62 15 -62 5 0 -4 -29 -6
-64 -6 -52 1 -71 6 -97 25 -36 26 -95 36 -102 17 -3 -8 -23 -12 -51 -11 -26 1
-49 -1 -51 -5 -5 -8 -61 -4 -76 5 -5 4 -9 2 -9 -3 0 -6 -11 -13 -25 -16 -14
-4 -24 -10 -21 -14 7 -12 -52 -44 -66 -36 -24 15 -83 12 -108 -5 -36 -24 -81
-44 -110 -47 -14 -1 -38 -5 -55 -9 -16 -4 -37 -8 -45 -10 -8 -2 -15 -4 -15 -5
0 -8 -57 -13 -105 -9 -36 3 -74 -7 -104 -26 -14 -10 -26 -13 -26 -9 0 5 -5 1
-11 -8 -5 -10 -16 -18 -24 -18 -7 0 -15 -4 -17 -9 -3 -9 -38 -18 -95 -26 -12
-2 -26 -6 -32 -9 -5 -3 -16 1 -24 9 -9 8 -20 15 -25 15 -14 0 -76 32 -87 46
-15 17 -73 35 -80 23 -9 -14 -43 -11 -52 5 -4 8 -11 15 -15 15 -5 1 -9 1 -10
2 -2 0 -14 3 -28 6 -55 11 -100 29 -100 41 0 12 -231 9 -250 -3 -19 -12 -61
-15 -54 -4 5 8 -72 26 -90 21 -5 -2 -13 3 -17 10 -7 10 -9 10 -9 -1 0 -9 -4
-10 -12 -4 -7 6 -26 9 -43 7 -16 -1 -37 0 -45 3 -24 9 -90 9 -90 0 0 -4 -10
-3 -21 4 -17 9 -20 8 -14 -2 12 -18 -17 1 -33 22 -7 10 -21 16 -32 14 -11 -2
-28 4 -38 14 -9 10 -25 21 -35 24 -10 4 -15 12 -12 17 4 6 3 10 -2 9 -16 -4
-63 13 -63 23 0 6 -7 8 -15 4 -9 -3 -15 0 -15 9 0 11 -11 15 -40 15 -22 0 -40
5 -40 10 0 6 -13 10 -28 10 -16 0 -32 3 -36 7 -7 7 -24 11 -68 15 -16 1 -28 5
-28 8 0 3 -14 14 -30 23 -30 18 -71 23 -122 14 -16 -3 -28 -1 -28 5 0 5 -6 8
-12 5 -7 -2 -24 0 -38 6 -36 14 -70 17 -70 6z"/>
<path d="M9114 6168 c-4 -5 -12 -7 -20 -4 -8 3 -14 2 -14 -2 0 -4 -15 -13 -32
-20 -30 -12 -31 -14 -16 -26 10 -7 15 -16 11 -19 -3 -4 2 -7 13 -8 89 -5 134
-15 134 -30 0 -4 10 -5 23 -2 12 3 38 6 57 7 19 0 37 4 40 8 3 3 22 -1 42 -10
33 -16 35 -19 24 -40 -7 -12 -15 -19 -19 -16 -4 4 -7 0 -7 -10 0 -9 -4 -15 -9
-11 -5 3 -13 0 -16 -6 -4 -5 -14 -8 -23 -4 -9 3 -14 3 -10 0 3 -4 -3 -16 -14
-27 -12 -12 -17 -26 -13 -36 4 -9 7 -21 8 -27 5 -26 46 -56 80 -58 20 -1 37
-6 37 -10 0 -5 5 -5 10 -2 6 3 10 1 10 -5 0 -7 7 -5 16 4 8 9 32 17 52 18 20
1 45 2 54 2 30 2 52 31 39 52 -6 11 -11 16 -11 13 0 -4 -17 0 -37 8 -21 7 -45
16 -54 19 -19 6 -15 39 8 65 21 25 41 125 22 113 -5 -3 -9 -1 -9 5 0 17 -52
39 -95 39 -61 0 -67 1 -61 11 3 4 -10 7 -29 6 -19 -1 -35 2 -35 6 0 10 -150 7
-156 -3z"/>
<path d="M8774 5241 c5 -7 -2 -11 -16 -12 -13 -1 -30 -2 -38 -3 -8 0 -18 4
-22 9 -5 6 -8 6 -8 -1 0 -6 -15 -10 -34 -9 -19 1 -33 -2 -30 -7 3 -4 -7 -10
-21 -14 -14 -3 -25 -11 -25 -16 0 -5 -5 -8 -12 -6 -7 3 -23 -7 -35 -20 -18
-19 -20 -28 -12 -38 6 -8 18 -14 25 -14 8 0 14 -4 14 -9 0 -14 82 -19 87 -5 2
6 13 10 24 7 11 -3 19 0 19 6 0 7 4 10 9 7 5 -4 12 0 14 6 3 7 6 8 6 2 1 -6
20 -9 46 -8 29 2 45 -2 45 -9 0 -7 4 -6 10 3 6 10 10 11 10 3 0 -7 5 -12 12
-10 23 4 19 -33 -6 -58 -14 -14 -26 -32 -26 -40 0 -8 -5 -15 -12 -15 -6 0 -9
-3 -5 -6 3 -3 2 -17 -3 -30 -7 -18 -5 -26 6 -32 9 -5 16 -12 15 -15 -3 -35 30
-41 72 -14 15 9 31 17 37 17 5 0 10 4 10 9 0 6 9 8 20 6 13 -3 18 0 14 7 -5 7
0 9 14 6 12 -4 25 -2 28 3 3 5 18 9 34 9 15 0 30 3 32 8 4 10 101 56 112 53 5
-1 4 4 -2 12 -8 9 -31 13 -72 11 -42 -1 -58 2 -53 10 5 8 3 8 -8 0 -8 -6 -23
-11 -35 -11 -17 -1 -20 3 -16 23 2 13 8 21 13 19 4 -3 11 11 15 31 5 26 3 39
-7 45 -8 5 -10 9 -6 9 12 0 -20 30 -32 30 -6 0 -11 7 -11 15 0 8 -6 15 -14 15
-8 0 -17 6 -19 13 -3 6 -6 7 -6 2 -1 -14 -112 -11 -140 5 -15 8 -21 8 -17 1z"/>
</g>
</svg>
